<svg id="visual" viewBox="0 0 960 200" width="960" height="200" xmlns="http://www.w3.org/2000/svg" xmlns:xlink="http://www.w3.org/1999/xlink" version="1.1"><rect x="0" y="0" width="960" height="200" fill="#fefefe"></rect><path d="M0 144L9.3 148.5C18.7 153 37.3 162 56.2 167.3C75 172.7 94 174.3 112.8 173.7C131.7 173 150.3 170 169.2 159.7C188 149.3 207 131.7 225.8 121.3C244.7 111 263.3 108 282.2 105.8C301 103.7 320 102.3 338.8 114.3C357.7 126.3 376.3 151.7 395.2 161.8C414 172 433 167 451.8 166.2C470.7 165.3 489.3 168.7 508.2 158.2C527 147.7 546 123.3 564.8 126.7C583.7 130 602.3 161 621.2 173.2C640 185.3 659 178.7 677.8 167.2C696.7 155.7 715.3 139.3 734.2 138.7C753 138 772 153 790.8 159.8C809.7 166.7 828.3 165.3 847.2 154.8C866 144.3 885 124.7 903.8 129.3C922.7 134 941.3 163 950.7 177.5L960 192L960 0L950.7 0C941.3 0 922.7 0 903.8 0C885 0 866 0 847.2 0C828.3 0 809.7 0 790.8 0C772 0 753 0 734.2 0C715.3 0 696.7 0 677.8 0C659 0 640 0 621.2 0C602.3 0 583.7 0 564.8 0C546 0 527 0 508.2 0C489.3 0 470.7 0 451.8 0C433 0 414 0 395.2 0C376.3 0 357.7 0 338.8 0C320 0 301 0 282.2 0C263.3 0 244.7 0 225.8 0C207 0 188 0 169.2 0C150.3 0 131.7 0 112.8 0C94 0 75 0 56.2 0C37.3 0 18.7 0 9.3 0L0 0Z" fill="#fe6a6b"></path><path d="M0 154L9.3 142.8C18.7 131.7 37.3 109.3 56.2 102.8C75 96.3 94 105.7 112.8 109C131.7 112.3 150.3 109.7 169.2 113.3C188 117 207 127 225.8 130.2C244.7 133.3 263.3 129.7 282.2 131.3C301 133 320 140 338.8 140.8C357.7 141.7 376.3 136.3 395.2 134C414 131.7 433 132.3 451.8 133.7C470.7 135 489.3 137 508.2 130.8C527 124.7 546 110.3 564.8 113.7C583.7 117 602.3 138 621.2 143.2C640 148.3 659 137.7 677.8 124.3C696.7 111 715.3 95 734.2 89.5C753 84 772 89 790.8 90.2C809.7 91.3 828.3 88.7 847.2 87.3C866 86 885 86 903.8 90.8C922.7 95.7 941.3 105.3 950.7 110.2L960 115L960 0L950.7 0C941.3 0 922.7 0 903.8 0C885 0 866 0 847.2 0C828.3 0 809.7 0 790.8 0C772 0 753 0 734.2 0C715.3 0 696.7 0 677.8 0C659 0 640 0 621.2 0C602.3 0 583.7 0 564.8 0C546 0 527 0 508.2 0C489.3 0 470.7 0 451.8 0C433 0 414 0 395.2 0C376.3 0 357.7 0 338.8 0C320 0 301 0 282.2 0C263.3 0 244.7 0 225.8 0C207 0 188 0 169.2 0C150.3 0 131.7 0 112.8 0C94 0 75 0 56.2 0C37.3 0 18.7 0 9.3 0L0 0Z" fill="#ff928e"></path><path d="M0 97L9.3 96.2C18.7 95.3 37.3 93.7 56.2 89.8C75 86 94 80 112.8 73.8C131.7 67.7 150.3 61.3 169.2 61.2C188 61 207 67 225.8 70.3C244.7 73.7 263.3 74.3 282.2 82.7C301 91 320 107 338.8 113.8C357.7 120.7 376.3 118.3 395.2 108C414 97.7 433 79.3 451.8 71C470.7 62.7 489.3 64.3 508.2 61.5C527 58.7 546 51.3 564.8 60.5C583.7 69.7 602.3 95.3 621.2 104.2C640 113 659 105 677.8 94C696.7 83 715.3 69 734.2 64C753 59 772 63 790.8 70.5C809.7 78 828.3 89 847.2 86C866 83 885 66 903.8 64.5C922.7 63 941.3 77 950.7 84L960 91L960 0L950.7 0C941.3 0 922.7 0 903.8 0C885 0 866 0 847.2 0C828.3 0 809.7 0 790.8 0C772 0 753 0 734.2 0C715.3 0 696.7 0 677.8 0C659 0 640 0 621.2 0C602.3 0 583.7 0 564.8 0C546 0 527 0 508.2 0C489.3 0 470.7 0 451.8 0C433 0 414 0 395.2 0C376.3 0 357.7 0 338.8 0C320 0 301 0 282.2 0C263.3 0 244.7 0 225.8 0C207 0 188 0 169.2 0C150.3 0 131.7 0 112.8 0C94 0 75 0 56.2 0C37.3 0 18.7 0 9.3 0L0 0Z" fill="#ffb7b2"></path><path d="M0 58L9.3 56.3C18.7 54.7 37.3 51.3 56.2 47.3C75 43.3 94 38.7 112.8 35.7C131.7 32.7 150.3 31.3 169.2 36.2C188 41 207 52 225.8 56.8C244.7 61.7 263.3 60.3 282.2 63.5C301 66.7 320 74.3 338.8 75.3C357.7 76.3 376.3 70.7 395.2 70.3C414 70 433 75 451.8 73.2C470.7 71.3 489.3 62.7 508.2 61.7C527 60.7 546 67.3 564.8 69.8C583.7 72.3 602.3 70.7 621.2 62.5C640 54.3 659 39.7 677.8 40.8C696.7 42 715.3 59 734.2 62.7C753 66.3 772 56.7 790.8 51.3C809.7 46 828.3 45 847.2 43.2C866 41.3 885 38.7 903.8 41.2C922.7 43.7 941.3 51.3 950.7 55.2L960 59L960 0L950.7 0C941.3 0 922.7 0 903.8 0C885 0 866 0 847.2 0C828.3 0 809.7 0 790.8 0C772 0 753 0 734.2 0C715.3 0 696.7 0 677.8 0C659 0 640 0 621.2 0C602.3 0 583.7 0 564.8 0C546 0 527 0 508.2 0C489.3 0 470.7 0 451.8 0C433 0 414 0 395.2 0C376.3 0 357.7 0 338.8 0C320 0 301 0 282.2 0C263.3 0 244.7 0 225.8 0C207 0 188 0 169.2 0C150.3 0 131.7 0 112.8 0C94 0 75 0 56.2 0C37.3 0 18.7 0 9.3 0L0 0Z" fill="#ffdbd7"></path><path d="M0 3L9.3 4.2C18.7 5.3 37.3 7.7 56.2 10.2C75 12.7 94 15.3 112.8 20C131.7 24.7 150.3 31.3 169.2 32.7C188 34 207 30 225.8 32.3C244.7 34.7 263.3 43.3 282.2 47C301 50.7 320 49.3 338.8 45C357.7 40.7 376.3 33.3 395.2 34C414 34.7 433 43.3 451.8 47.7C470.7 52 489.3 52 508.2 45.2C527 38.3 546 24.7 564.8 24.3C583.7 24 602.3 37 621.2 42.5C640 48 659 46 677.8 40.7C696.7 35.3 715.3 26.7 734.2 23.8C753 21 772 24 790.8 23.7C809.7 23.3 828.3 19.7 847.2 23.5C866 27.3 885 38.7 903.8 42C922.7 45.3 941.3 40.7 950.7 38.3L960 36L960 0L950.7 0C941.3 0 922.7 0 903.8 0C885 0 866 0 847.2 0C828.3 0 809.7 0 790.8 0C772 0 753 0 734.2 0C715.3 0 696.7 0 677.8 0C659 0 640 0 621.2 0C602.3 0 583.7 0 564.8 0C546 0 527 0 508.2 0C489.3 0 470.7 0 451.8 0C433 0 414 0 395.2 0C376.3 0 357.7 0 338.8 0C320 0 301 0 282.2 0C263.3 0 244.7 0 225.8 0C207 0 188 0 169.2 0C150.3 0 131.7 0 112.8 0C94 0 75 0 56.2 0C37.3 0 18.7 0 9.3 0L0 0Z" fill="#fefefe"></path></svg>