<svg id="visual" viewBox="0 0 960 200" width="960" height="200" xmlns="http://www.w3.org/2000/svg" xmlns:xlink="http://www.w3.org/1999/xlink" version="1.1"><rect x="0" y="0" width="960" height="200" fill="#fefefe"></rect><path d="M0 113L9.3 111C18.7 109 37.3 105 56.2 96.8C75 88.7 94 76.3 112.8 82C131.7 87.7 150.3 111.3 169.2 118.7C188 126 207 117 225.8 114.8C244.7 112.7 263.3 117.3 282.2 118.8C301 120.3 320 118.7 338.8 117.3C357.7 116 376.3 115 395.2 109.8C414 104.7 433 95.3 451.8 95.8C470.7 96.3 489.3 106.7 508.2 109C527 111.3 546 105.7 564.8 101.8C583.7 98 602.3 96 621.2 96.5C640 97 659 100 677.8 101.3C696.7 102.7 715.3 102.3 734.2 97.7C753 93 772 84 790.8 80.2C809.7 76.3 828.3 77.7 847.2 86C866 94.3 885 109.7 903.8 110.3C922.7 111 941.3 97 950.7 90L960 83L960 0L950.7 0C941.3 0 922.7 0 903.8 0C885 0 866 0 847.2 0C828.3 0 809.7 0 790.8 0C772 0 753 0 734.2 0C715.3 0 696.7 0 677.8 0C659 0 640 0 621.2 0C602.3 0 583.7 0 564.8 0C546 0 527 0 508.2 0C489.3 0 470.7 0 451.8 0C433 0 414 0 395.2 0C376.3 0 357.7 0 338.8 0C320 0 301 0 282.2 0C263.3 0 244.7 0 225.8 0C207 0 188 0 169.2 0C150.3 0 131.7 0 112.8 0C94 0 75 0 56.2 0C37.3 0 18.7 0 9.3 0L0 0Z" fill="#fefefe"></path><path d="M0 101L9.3 100.2C18.7 99.3 37.3 97.7 56.2 97.2C75 96.7 94 97.3 112.8 93.5C131.7 89.7 150.3 81.3 169.2 77.2C188 73 207 73 225.8 75.7C244.7 78.3 263.3 83.7 282.2 85C301 86.3 320 83.7 338.8 83C357.7 82.3 376.3 83.7 395.2 84.2C414 84.7 433 84.3 451.8 82.3C470.7 80.3 489.3 76.7 508.2 71.7C527 66.7 546 60.3 564.8 64.2C583.7 68 602.3 82 621.2 82.2C640 82.3 659 68.7 677.8 70.2C696.7 71.7 715.3 88.3 734.2 96.7C753 105 772 105 790.8 104.3C809.7 103.7 828.3 102.3 847.2 98.5C866 94.7 885 88.3 903.8 89.8C922.7 91.3 941.3 100.7 950.7 105.3L960 110L960 0L950.7 0C941.3 0 922.7 0 903.8 0C885 0 866 0 847.2 0C828.3 0 809.7 0 790.8 0C772 0 753 0 734.2 0C715.3 0 696.7 0 677.8 0C659 0 640 0 621.2 0C602.3 0 583.7 0 564.8 0C546 0 527 0 508.2 0C489.3 0 470.7 0 451.8 0C433 0 414 0 395.2 0C376.3 0 357.7 0 338.8 0C320 0 301 0 282.2 0C263.3 0 244.7 0 225.8 0C207 0 188 0 169.2 0C150.3 0 131.7 0 112.8 0C94 0 75 0 56.2 0C37.3 0 18.7 0 9.3 0L0 0Z" fill="#ffdbd7"></path><path d="M0 77L9.3 77.8C18.7 78.7 37.3 80.3 56.2 73.5C75 66.7 94 51.3 112.8 46.7C131.7 42 150.3 48 169.2 54.3C188 60.7 207 67.3 225.8 68.7C244.7 70 263.3 66 282.2 65.5C301 65 320 68 338.8 68.8C357.7 69.7 376.3 68.3 395.2 67.7C414 67 433 67 451.8 62.5C470.7 58 489.3 49 508.2 44C527 39 546 38 564.8 46.2C583.7 54.3 602.3 71.7 621.2 77.5C640 83.3 659 77.7 677.8 75C696.7 72.3 715.3 72.7 734.2 70.5C753 68.3 772 63.7 790.8 63.2C809.7 62.7 828.3 66.3 847.2 70C866 73.7 885 77.3 903.8 80.5C922.7 83.7 941.3 86.3 950.7 87.7L960 89L960 0L950.7 0C941.3 0 922.7 0 903.8 0C885 0 866 0 847.2 0C828.3 0 809.7 0 790.8 0C772 0 753 0 734.2 0C715.3 0 696.7 0 677.8 0C659 0 640 0 621.2 0C602.3 0 583.7 0 564.8 0C546 0 527 0 508.2 0C489.3 0 470.7 0 451.8 0C433 0 414 0 395.2 0C376.3 0 357.7 0 338.8 0C320 0 301 0 282.2 0C263.3 0 244.7 0 225.8 0C207 0 188 0 169.2 0C150.3 0 131.7 0 112.8 0C94 0 75 0 56.2 0C37.3 0 18.7 0 9.3 0L0 0Z" fill="#ffb7b2"></path><path d="M0 63L9.3 62.7C18.7 62.3 37.3 61.7 56.2 55.3C75 49 94 37 112.8 36C131.7 35 150.3 45 169.2 47.7C188 50.3 207 45.7 225.8 40.3C244.7 35 263.3 29 282.2 26.7C301 24.3 320 25.7 338.8 29.5C357.7 33.3 376.3 39.7 395.2 42.5C414 45.3 433 44.7 451.8 46.7C470.7 48.7 489.3 53.3 508.2 55C527 56.7 546 55.3 564.8 55.5C583.7 55.7 602.3 57.3 621.2 58.5C640 59.7 659 60.3 677.8 55.2C696.7 50 715.3 39 734.2 37.2C753 35.3 772 42.7 790.8 44C809.7 45.3 828.3 40.7 847.2 40.5C866 40.3 885 44.7 903.8 47.3C922.7 50 941.3 51 950.7 51.5L960 52L960 0L950.7 0C941.3 0 922.7 0 903.8 0C885 0 866 0 847.2 0C828.3 0 809.7 0 790.8 0C772 0 753 0 734.2 0C715.3 0 696.7 0 677.8 0C659 0 640 0 621.2 0C602.3 0 583.7 0 564.8 0C546 0 527 0 508.2 0C489.3 0 470.7 0 451.8 0C433 0 414 0 395.2 0C376.3 0 357.7 0 338.8 0C320 0 301 0 282.2 0C263.3 0 244.7 0 225.8 0C207 0 188 0 169.2 0C150.3 0 131.7 0 112.8 0C94 0 75 0 56.2 0C37.3 0 18.7 0 9.3 0L0 0Z" fill="#ff928e"></path><path d="M0 12L9.3 13C18.7 14 37.3 16 56.2 15C75 14 94 10 112.8 9.3C131.7 8.7 150.3 11.3 169.2 15.3C188 19.3 207 24.7 225.8 25C244.7 25.3 263.3 20.7 282.2 21.2C301 21.7 320 27.3 338.8 28.8C357.7 30.3 376.3 27.7 395.2 25.3C414 23 433 21 451.8 18.7C470.7 16.3 489.3 13.7 508.2 16.3C527 19 546 27 564.8 30C583.7 33 602.3 31 621.2 28.7C640 26.3 659 23.7 677.8 24.7C696.7 25.7 715.3 30.3 734.2 29.5C753 28.7 772 22.3 790.8 23.3C809.7 24.3 828.3 32.7 847.2 35.7C866 38.7 885 36.3 903.8 35.5C922.7 34.7 941.3 35.3 950.7 35.7L960 36L960 0L950.7 0C941.3 0 922.7 0 903.8 0C885 0 866 0 847.2 0C828.3 0 809.7 0 790.8 0C772 0 753 0 734.2 0C715.3 0 696.7 0 677.8 0C659 0 640 0 621.2 0C602.3 0 583.7 0 564.8 0C546 0 527 0 508.2 0C489.3 0 470.7 0 451.8 0C433 0 414 0 395.2 0C376.3 0 357.7 0 338.8 0C320 0 301 0 282.2 0C263.3 0 244.7 0 225.8 0C207 0 188 0 169.2 0C150.3 0 131.7 0 112.8 0C94 0 75 0 56.2 0C37.3 0 18.7 0 9.3 0L0 0Z" fill="#fe6a6b"></path></svg>